# xmcd
#
# Track frame offsets:
#	150
#	14302
#	28013
#	42353
#	55813
#	67471
#	83660
#	95754
#	114826
#	129659
#
# Disc length: 1909 seconds
#
# Revision: 0
# Processed by: cddbd v1.5.1PL2 Copyright (c) Steve Scherf et al.
# Submitted via: dBpowerAMP V4.0
#
DISCID=8507730a
DTITLE=Rony Marcos e Rudy Santos - Volume 1
DYEAR=2006
DGENRE=Country
TTITLE0=Ainda ontem chorei de saudade
TTITLE1=Apaziguar
TTITLE2=Boca a boca
TTITLE3=Cade você
TTITLE4=Estrada do amor
TTITLE5=Eu sem você
TTITLE6=Fio de cabelo
TTITLE7=Laço aberto
TTITLE8=Mexe mexe que é bom
TTITLE9=Mulher chorona
EXTD=
EXTT0=
EXTT1=
EXTT2=
EXTT3=
EXTT4=
EXTT5=
EXTT6=
EXTT7=
EXTT8=
EXTT9=
PLAYORDER=
